<svg width="512" height="512" viewBox="0 0 512 512" fill="none" xmlns="http://www.w3.org/2000/svg">
<g clip-path="url(#clip0)">
<path d="M256 504.904C393.466 504.904 504.904 393.466 504.904 256C504.904 118.534 393.466 7.09595 256 7.09595C118.534 7.09595 7.09595 118.534 7.09595 256C7.09595 393.466 118.534 504.904 256 504.904Z" fill="url(#paint0_linear)"/>
<path d="M256 512C221.394 512 187.879 505.232 156.329 491.913C125.871 479.031 98.4699 460.582 74.9987 437.001C51.5275 413.53 33.078 386.129 20.087 355.671C6.76845 324.121 0 290.606 0 256C0 221.394 6.76845 187.879 20.087 156.329C32.9689 125.871 51.4183 98.4699 74.9987 74.9987C98.5791 51.5275 125.871 33.078 156.329 20.087C187.879 6.76844 221.394 0 256 0C290.606 0 324.121 6.76844 355.671 20.087C386.129 32.9689 413.53 51.4183 437.001 74.9987C460.472 98.4699 478.922 125.871 491.913 156.329C505.232 187.879 512 221.394 512 256C512 290.606 505.232 324.121 491.913 355.671C479.031 386.129 460.582 413.53 437.001 437.001C413.53 460.472 386.129 478.922 355.671 491.913C324.121 505.232 290.606 512 256 512ZM256 21.0695C224.232 21.0695 193.556 27.2921 164.517 39.519C136.57 51.4183 111.461 68.3394 89.8456 89.8456C68.2303 111.461 51.3092 136.57 39.519 164.517C27.2921 193.446 21.0695 224.232 21.0695 256C21.0695 287.768 27.2921 318.444 39.519 347.483C51.3092 375.43 68.3394 400.539 89.8456 422.154C111.461 443.77 136.57 460.691 164.517 472.481C193.446 484.708 224.232 490.93 256 490.93C287.768 490.93 318.444 484.708 347.483 472.481C375.43 460.691 400.539 443.661 422.154 422.154C443.77 400.539 460.691 375.43 472.481 347.483C484.708 318.554 490.931 287.768 490.931 256C490.931 224.232 484.708 193.556 472.481 164.517C460.691 136.57 443.661 111.461 422.154 89.8456C400.539 68.2303 375.43 51.3092 347.483 39.519C318.444 27.2921 287.768 21.0695 256 21.0695Z" fill="white"/>
<path d="M435.91 324.23L302.615 61.8985C301.96 60.5885 300.104 60.5885 299.449 61.8985L207.638 241.481L156.548 143.993C155.893 142.683 154.037 142.683 153.382 143.993L60.1518 324.23H15.9386L23.3621 353.487H489.511L499.009 324.23H435.91ZM166.373 324.23H90.719L155.674 198.687L192.791 271.065L166.373 324.23ZM196.285 324.23L299.667 119.103L403.923 324.23H196.285Z" fill="white"/>
</g>
<defs>
<linearGradient id="paint0_linear" x1="256" y1="504.984" x2="256" y2="7.08114" gradientUnits="userSpaceOnUse">
<stop stop-color="#5486C2"/>
<stop offset="1" stop-color="#33B7F6"/>
</linearGradient>
<clipPath id="clip0">
<rect width="512" height="512" fill="white"/>
</clipPath>
</defs>
</svg>
